<svg width="262" height="34" viewBox="0 0 262 34" fill="none" xmlns="http://www.w3.org/2000/svg">
<path d="M17.293 4.45585L0.0541992 33.1458H9.20353L12.2371 27.7968C12.6372 27.0914 13.3943 26.6533 14.2108 26.6533H37.7384C38.6739 26.6533 39.4363 27.4067 39.4363 28.3312V33.1404H47.1473V0.859592H23.6792C21.0566 0.859592 18.6232 2.22756 17.2876 4.45585H17.293ZM17.5147 18.5096L23.2087 8.48494C23.6089 7.77959 24.3659 7.34141 25.1824 7.34141H37.7384C38.6739 7.34141 39.4363 8.09486 39.4363 9.01931V18.4989C39.4363 19.4233 38.6739 20.1768 37.7384 20.1768H18.4989C17.6337 20.1768 17.0875 19.2577 17.5093 18.5096H17.5147Z" fill="white"/>
<path d="M214.847 0.859592V33.1458H222.558V28.3365C222.558 27.4121 223.321 26.6586 224.256 26.6586H247.784C248.606 26.6586 249.357 27.0968 249.757 27.8021L252.791 33.1511H261.94L244.702 4.46119C243.36 2.2329 240.933 0.864935 238.31 0.864935H214.842L214.847 0.859592ZM243.501 20.1768H224.262C223.326 20.1768 222.564 19.4233 222.564 18.4989V9.01931C222.564 8.09486 223.326 7.34141 224.262 7.34141H236.818C237.634 7.34141 238.391 7.77959 238.791 8.48494L244.485 18.5096C244.907 19.2577 244.361 20.1768 243.496 20.1768H243.501Z" fill="white"/>
<path d="M52.7494 0.854248V7.34141H70.5938C71.5293 7.34141 72.2917 8.09486 72.2917 9.01931V33.1404H80.0081V9.01931C80.0081 8.09486 80.7706 7.34141 81.706 7.34141H99.4964V0.854248H52.7494Z" fill="white"/>
<path d="M162.509 0.854248V7.34141H180.299C181.235 7.34141 181.997 8.09486 181.997 9.01931V33.1404H189.714V9.01931C189.714 8.09486 190.476 7.34141 191.412 7.34141H209.256V0.854248H162.509Z" fill="white"/>
<path d="M156.923 0.859592V33.1297H149.201V7.34141H148.26C147.617 7.34141 147.033 7.69943 146.741 8.26586L134.682 31.9648H127.334L115.275 8.26586C114.989 7.69943 114.399 7.34141 113.756 7.34141H112.799V33.1351H105.093V0.859592H114.269C117.081 0.859592 119.65 2.42527 120.91 4.90472L129.994 22.7631C130.411 23.586 131.6 23.586 132.017 22.7631L141.101 4.90472C142.361 2.42527 144.935 0.859592 147.741 0.859592H156.923Z" fill="white"/>
</svg>
